<?xml version="1.0" encoding="UTF-8" standalone="no"?>
<svg width="600px" height="600px" viewBox="0 0 600 600" version="1.1" xmlns="http://www.w3.org/2000/svg" xmlns:xlink="http://www.w3.org/1999/xlink">
    <!-- Generator: Sketch 3.8.2 (29753) - http://www.bohemiancoding.com/sketch -->
    <title>sprite</title>
    <desc>Created with Sketch.</desc>
    <defs>
        <rect id="path-1" x="0" y="0" width="600" height="600"></rect>
        <mask id="mask-2" maskContentUnits="userSpaceOnUse" maskUnits="objectBoundingBox" x="0" y="0" width="600" height="600" fill="white">
            <use xlink:href="#path-1"></use>
        </mask>
        <rect id="path-3" x="50.707" y="71.707" width="16" height="16" rx="2"></rect>
        <mask id="mask-4" maskContentUnits="userSpaceOnUse" maskUnits="objectBoundingBox" x="0" y="0" width="16" height="16" fill="white">
            <use xlink:href="#path-3"></use>
        </mask>
    </defs>
    <g id="Page-1" stroke="none" stroke-width="1" fill="none" fill-rule="evenodd">
        <g id="sprite">
            <use id="Rectangle-965" stroke="#FFFFFF" mask="url(#mask-2)" stroke-width="2" xlink:href="#path-1"></use>
            <g id="icons" transform="translate(30.000000, 30.000000)" fill="#4A4A4A">
                <g id="удалить" transform="translate(427.000000, 0.000000)">
                    <path d="M2.69940317,18.5803429 C2.7865204,19.3643979 3.49711076,20 4.28579321,20 L12.8570639,20 C13.6460857,20 14.3563135,19.3646067 14.443454,18.5803429 L15.7142857,7.14285714 L1.42857143,7.14285714 L2.69940317,18.5803429 L2.69940317,18.5803429 Z M4.28571429,2.85714286 L5.35714286,0 L11.7857143,0 L12.8571429,2.85714286 L15.7142857,2.85714286 C17.1428571,2.85714286 17.1428571,5.71428571 17.1428571,5.71428571 L8.57142857,5.71428571 L0,5.71428571 C0,5.71428571 0,2.85714286 1.42857143,2.85714286 L4.28571429,2.85714286 L4.28571429,2.85714286 Z M5.71428571,2.85714286 L11.4285714,2.85714286 L10.7142857,1.42857143 L6.42857143,1.42857143 L5.71428571,2.85714286 L5.71428571,2.85714286 Z" id="Shape"></path>
                    <path d="M94.1414141,192.732326 L90.4796427,189.107172 C91.1758466,188.160451 91.5913231,186.998566 91.5913231,185.737705 C91.5913231,182.568699 88.9966778,180 85.7956615,180 C82.5946452,180 80,182.568699 80,185.737705 C80,188.906711 82.5946452,191.47541 85.7956615,191.47541 C87.0692582,191.47541 88.2428796,191.064088 89.1991638,190.374846 L92.8609352,194 L94.1414141,192.732326 L94.1414141,192.732326 Z M85.7956615,189.682377 C83.5987436,189.682377 81.8111442,187.912654 81.8111442,185.737705 C81.8111442,183.562756 83.5987436,181.793033 85.7956615,181.793033 C87.9925795,181.793033 89.7801788,183.562756 89.7801788,185.737705 C89.7801788,187.912654 87.9925795,189.682377 85.7956615,189.682377 L85.7956615,189.682377 Z" id="Icon"></path>
                </g>
                <path d="M378,5.69565217 L378,17.4341063 C378,18.2943786 378.698691,19 379.560569,19 L390.521739,19 L390.521739,14.302862 C390.521739,13.4330746 391.224585,12.7391304 392.091589,12.7391304 L396,12.7391304 L396,5.69565217 L378,5.69565217 L378,5.69565217 L378,5.69565217 Z M378,4.91304348 L378,2.56589374 C378,1.70107451 378.705621,1 379.565894,1 L394.434106,1 C395.298926,1 396,1.69918052 396,2.55886589 L396,4.91304348 L378,4.91304348 L378,4.91304348 L378,4.91304348 Z M391.304348,19 L391.304348,14.3066403 C391.304348,13.8731514 391.657285,13.5217391 392.079739,13.5217391 L396,13.5217391 L391.304348,19 L391.304348,19 L391.304348,19 Z M380.347826,8.04347826 L380.347826,8.82608696 L393.652174,8.82608696 L393.652174,8.04347826 L380.347826,8.04347826 L380.347826,8.04347826 L380.347826,8.04347826 Z M380.347826,10.3913043 L380.347826,11.173913 L393.652174,11.173913 L393.652174,10.3913043 L380.347826,10.3913043 L380.347826,10.3913043 L380.347826,10.3913043 Z M380.347826,12.7391304 L380.347826,13.5217391 L388.956522,13.5217391 L388.956522,12.7391304 L380.347826,12.7391304 L380.347826,12.7391304 L380.347826,12.7391304 Z M380.347826,15.0869565 L380.347826,15.8695652 L388.956522,15.8695652 L388.956522,15.0869565 L380.347826,15.0869565 L380.347826,15.0869565 L380.347826,15.0869565 Z" id="note-text"></path>
                <g id="ссылка" transform="translate(332.000000, 1.000000)">
                    <path d="M13.6146758,10.5109121 L16.1214231,8.00376923 C17.9501044,6.17548352 17.9501044,3.19994505 16.1214231,1.37165934 C14.2929396,-0.45721978 11.3175989,-0.45721978 9.48911538,1.37165934 L5.87151099,4.98926374 C4.04282967,6.81754945 4.04282967,9.79308791 5.87151099,11.6213736 C6.14151099,11.8915714 6.43702747,12.1206264 6.74975275,12.3109121 L8.68643407,10.374033 C8.31753297,10.2858132 7.96762088,10.0996813 7.68041209,9.81267033 C6.84924725,8.98150549 6.84924725,7.62893407 7.68041209,6.79796703 L11.2980165,3.18036264 C12.1291813,2.3491978 13.4817527,2.3491978 14.3127198,3.18036264 C15.1438846,4.01152747 15.1438846,5.3639011 14.3127198,6.19506593 L13.2499286,7.25805495 C13.6878626,8.2888022 13.8089176,9.42240659 13.6146758,10.5109121 L13.6146758,10.5109121 Z" id="Shape"></path>
                    <path d="M3.87840659,8.1 L1.37165934,10.6069451 C-0.45721978,12.4354286 -0.45721978,15.4107692 1.37165934,17.2392527 C3.19994505,19.0679341 6.17548352,19.0679341 8.00396703,17.2392527 L11.6213736,13.6216484 C13.4500549,11.7931648 13.4498571,8.81782418 11.6213736,6.98953846 C11.3515714,6.71934066 11.0560549,6.49028571 10.7433297,6.3 L8.80664835,8.23687912 C9.17535165,8.3252967 9.52526374,8.51103297 9.81267033,8.79824176 C10.6438352,9.62940659 10.6438352,10.9817802 9.81267033,11.8129451 L6.19486813,15.4305495 C5.3637033,16.2617143 4.01132967,16.2617143 3.18016484,15.4305495 C2.349,14.5993846 2.349,13.247011 3.18016484,12.4158462 L4.24315385,11.3530549 C3.80502198,10.3223077 3.68396703,9.18850549 3.87840659,8.1 L3.87840659,8.1 Z" id="Shape"></path>
                </g>
                <path d="M285.818182,3 C284.94,3 284.211364,3.52781019 284.039091,4.23415014 L294,12.7576818 L303.960909,4.23415014 C303.788409,3.52781019 303.06,3 302.181818,3 L285.818182,3 M284,5.30066122 L284,14.8708674 L289.5925,10.0853753 L284,5.29988331 M304,5.29988331 L298.488636,10.0159471 L304,14.7320109 L304,5.29793855 M297.845455,10.5643718 L294.321818,13.579541 C294.144305,13.731373 293.856581,13.731373 293.679068,13.579541 L290.235886,10.6332166 L284.079068,15.9015947 C284.306341,16.5388954 284.99725,17 285.817705,17 L302.181341,17 C303.048841,17 303.769295,16.4850253 303.952932,15.7917153 L297.844523,10.5651497" id="письмо"></path>
                <path d="M241.158594,1.0004923 C241.00371,1.01858 240.887121,1.15011632 240.887758,1.30605169 L240.887758,8.62558794 C240.888207,8.79415726 241.024748,8.93069799 241.193317,8.93114733 L250.804549,8.93114733 C250.973118,8.93069799 251.109659,8.79415726 251.110108,8.62558794 L251.110108,1.30605169 C251.109659,1.13748237 250.973118,1.00094164 250.804549,1.0004923 L241.193317,1.0004923 C241.181752,0.9998359 241.170159,0.9998359 241.158594,1.0004923 L241.158594,1.0004923 Z M242.547501,2.32689782 L249.450365,2.32689782 C249.711071,2.32689782 249.922593,2.53841959 249.922593,2.79912597 C249.922593,3.05983213 249.711071,3.27135411 249.450365,3.27135411 L242.547501,3.27135411 C242.286716,3.27135411 242.075273,3.05983213 242.075273,2.79912597 C242.075273,2.53841959 242.286716,2.32689782 242.547501,2.32689782 L242.547501,2.32689782 Z M242.547501,4.37553463 L249.450365,4.37553463 C249.711071,4.37553463 249.922593,4.58011186 249.922593,4.84081824 C249.922593,5.10160285 249.711071,5.31304639 249.450365,5.31304639 L242.547501,5.31304639 C242.286716,5.31304639 242.075273,5.10160285 242.075273,4.84081824 C242.075273,4.58011186 242.286716,4.37553463 242.547501,4.37553463 L242.547501,4.37553463 Z M253.276802,6.02833314 C253.215665,6.02833314 253.151104,6.03108206 253.0893,6.03527767 L252.179566,6.03527767 C252.010997,6.03572701 251.874456,6.17226774 251.874007,6.34083706 L251.874007,9.70199033 C251.789575,9.69375467 251.668578,9.67183106 251.512891,9.6950458 L240.116915,9.6950458 C240.12519,9.61057518 240.147035,9.49660042 240.123859,9.34087469 L240.123859,6.34083706 C240.123656,6.25864994 240.090441,6.17999047 240.031677,6.12253183 C239.972912,6.06507319 239.893526,6.03363388 239.811355,6.03527767 C239.414571,6.03605546 239.018034,6.03252208 238.616896,6.03527767 C238.612267,6.03517272 238.607636,6.03517272 238.603007,6.03527767 C238.597869,6.03527767 238.594373,6.03487767 238.589118,6.03527767 C238.584489,6.03517272 238.579858,6.03517272 238.575229,6.03527767 C237.309188,6.11833471 236.241449,7.14711273 236.026586,8.3755848 C236.025929,8.38714972 236.025929,8.39874255 236.026586,8.41030746 C235.97686,9.38411279 236.020066,10.3531136 236.005752,11.2992326 C236.005726,11.3015474 236.005726,11.3038623 236.005752,11.3061771 C236.014066,12.5397081 235.98403,13.7904869 236.012697,15.0353906 C236.01434,15.047089 236.016659,15.0586826 236.019641,15.0701132 C236.204622,16.3108981 237.254452,17.3495485 238.512728,17.4729211 C238.51967,17.4731573 238.526619,17.4731573 238.533562,17.4729211 C238.967484,17.4847257 239.394414,17.4761412 239.811355,17.4798657 C239.893526,17.4815095 239.972912,17.4500701 240.031677,17.3926115 C240.090441,17.3351529 240.123656,17.2564934 240.123859,17.1743063 L240.123859,13.8062085 C240.208291,13.8144841 240.322226,13.8363286 240.47803,13.813153 L251.880951,13.813153 C251.872678,13.8975845 251.850752,14.0184645 251.874007,14.1742686 L251.874007,17.1743063 C251.87421,17.2564934 251.907425,17.3351529 251.966189,17.3926115 C252.024954,17.4500701 252.10434,17.4815095 252.186511,17.4798657 C252.841884,17.4549245 253.675832,17.6224703 254.436539,17.1881953 C254.439283,17.1866175 254.440737,17.1828242 254.443483,17.1812508 C255.38274,16.6795638 256.082663,15.657425 255.992114,14.5353843 C255.986349,12.5382052 256.004974,10.5381353 255.985169,8.53530903 C255.983526,8.5236106 255.981207,8.51201703 255.978225,8.50058637 C255.827283,7.18462409 254.665262,6.07280392 253.332358,6.02833314 C253.312085,6.02755535 253.297116,6.02833314 253.276802,6.02833314 L253.276802,6.02833314 Z M242.547501,6.41722691 L249.450365,6.41722691 C249.711071,6.41722691 249.922593,6.62874867 249.922593,6.88945505 C249.922593,7.15016121 249.711071,7.3616832 249.450365,7.3616832 L242.547501,7.3616832 C242.286716,7.3616832 242.075273,7.15016121 242.075273,6.88945505 C242.075273,6.62874867 242.286716,6.41722691 242.547501,6.41722691 L242.547501,6.41722691 Z M253.644862,7.39640585 C254.138157,7.39640585 254.533762,7.82364921 254.533762,8.34780668 C254.533762,8.87196436 254.138157,9.29226297 253.644862,9.29226297 C253.151528,9.29226297 252.749018,8.87196436 252.749018,8.34780668 C252.749018,7.82364921 253.151528,7.39640585 253.644862,7.39640585 L253.644862,7.39640585 Z M253.644862,7.76446603 C253.34443,7.76446603 253.096244,8.02859067 253.096244,8.34780668 C253.096244,8.66698379 253.34443,8.9242028 253.644862,8.9242028 C253.945255,8.9242028 254.186536,8.66698379 254.186536,8.34780668 C254.186536,8.02859067 253.945255,7.76446603 253.644862,7.76446603 L253.644862,7.76446603 Z M241.158594,14.5770515 C241.00371,14.5951392 240.887121,14.7266755 240.887758,14.8826109 L240.887758,17.2437516 L240.887758,19.4590572 C240.888207,19.6276265 241.024748,19.7641672 241.193317,19.7646165 L250.804549,19.7646165 C250.973118,19.7641672 251.109659,19.6276265 251.110108,19.4590572 L251.110108,14.8826109 C251.109659,14.7140415 250.973118,14.5775008 250.804549,14.5770515 L241.193317,14.5770515 C241.181752,14.5763951 241.170159,14.5763951 241.158594,14.5770515 L241.158594,14.5770515 Z" id="печать"></path>
                <g id="сохранить-как" transform="translate(190.000000, 1.000000)">
                    <path d="M10.110169,4.85923944 L11.777831,4.85923944 C11.909662,4.85923944 12.0158873,4.74667606 12.0158873,4.608 L12.0158873,0.589183099 C12.0158873,0.450507042 11.9094085,0.337943662 11.777831,0.337943662 L10.110169,0.337943662 C9.97833803,0.337943662 9.87211268,0.450507042 9.87211268,0.589183099 L9.87211268,4.608 C9.87185915,4.74667606 9.97833803,4.85923944 10.110169,4.85923944 L10.110169,4.85923944 Z" id="Shape"></path>
                    <path d="M15.5920563,0.100901408 L13.0124789,0.100901408 L13.0124789,5.07295775 C13.0124789,5.51383099 12.6157183,5.87104225 12.1259155,5.87104225 L4.68101408,5.87104225 C4.19146479,5.87104225 3.7944507,5.51383099 3.7944507,5.07295775 L3.7944507,0.100901408 L2.24214085,0.100901408 C1.01814085,0.100901408 0.0258591549,1.0931831 0.0258591549,2.31743662 L0.0258591549,15.6670986 C0.0258591549,16.8913521 1.01814085,17.8836338 2.24214085,17.8836338 L15.5920563,17.8836338 C16.8160563,17.8836338 17.808338,16.8913521 17.808338,15.6670986 L17.808338,2.31743662 L15.5920563,0.100901408 L15.5920563,0.100901408 Z M15.2946761,14.8322535 L15.2946761,14.8322535 C15.2944225,15.1813521 14.9800563,15.4650423 14.5919155,15.4650423 L3.24228169,15.4650423 C2.85414085,15.4650423 2.53977465,15.1813521 2.53977465,14.8322535 L2.53977465,8.40726761 C2.53977465,8.05766197 2.85439437,7.77447887 3.24228169,7.77447887 L14.5924225,7.77447887 C14.9800563,7.77447887 15.2949296,8.05766197 15.2949296,8.40726761 L15.2949296,14.8322535 L15.2946761,14.8322535 Z M16.9123944,5.20605634 L15.8891831,5.20605634 L15.8891831,6.22876056 C15.8891831,6.49926761 15.6703944,6.71830986 15.3998873,6.71830986 C15.1301408,6.71830986 14.9105915,6.49926761 14.9105915,6.22876056 L14.9105915,5.20605634 L13.8873803,5.20605634 C13.6171268,5.20605634 13.397831,4.98701408 13.397831,4.71650704 C13.397831,4.44625352 13.6168732,4.22695775 13.8873803,4.22695775 L14.9105915,4.22695775 L14.9105915,3.20425352 C14.9105915,2.93374648 15.1298873,2.71470423 15.3998873,2.71470423 C15.6701408,2.71470423 15.8891831,2.93374648 15.8891831,3.20425352 L15.8891831,4.22695775 L16.9123944,4.22695775 C17.1826479,4.22695775 17.4019437,4.44625352 17.4019437,4.71650704 C17.4019437,4.98701408 17.1826479,5.20605634 16.9123944,5.20605634 L16.9123944,5.20605634 Z" id="Shape"></path>
                    <path d="M13.3539718,13.2809577 L4.48073239,13.2809577 C4.32887324,13.2809577 4.20616901,13.4039155 4.20616901,13.5555211 C4.20616901,13.7076338 4.32912676,13.830338 4.48073239,13.830338 L13.3539718,13.830338 C13.5055775,13.830338 13.6285352,13.7076338 13.6285352,13.5555211 C13.6285352,13.4039155 13.5053239,13.2809577 13.3539718,13.2809577 L13.3539718,13.2809577 Z" id="Shape"></path>
                    <path d="M13.3539718,12.0133521 L4.48073239,12.0133521 C4.32887324,12.0133521 4.20616901,12.1363099 4.20616901,12.2879155 C4.20616901,12.4400282 4.32912676,12.5627324 4.48073239,12.5627324 L13.3539718,12.5627324 C13.5055775,12.5627324 13.6285352,12.4400282 13.6285352,12.2879155 C13.6285352,12.1363099 13.5053239,12.0133521 13.3539718,12.0133521 L13.3539718,12.0133521 Z" id="Shape"></path>
                    <path d="M13.3539718,10.7457465 L4.48073239,10.7457465 C4.32887324,10.7457465 4.20616901,10.8687042 4.20616901,11.0203099 C4.20616901,11.1724225 4.32912676,11.2951268 4.48073239,11.2951268 L13.3539718,11.2951268 C13.5055775,11.2951268 13.6285352,11.1724225 13.6285352,11.0203099 C13.6285352,10.8687042 13.5053239,10.7457465 13.3539718,10.7457465 L13.3539718,10.7457465 Z" id="Shape"></path>
                    <path d="M13.3539718,9.47814085 L4.48073239,9.47814085 C4.32887324,9.47814085 4.20616901,9.60109859 4.20616901,9.75270423 C4.20616901,9.9048169 4.32912676,10.0275211 4.48073239,10.0275211 L13.3539718,10.0275211 C13.5055775,10.0275211 13.6285352,9.9048169 13.6285352,9.75270423 C13.6285352,9.60109859 13.5053239,9.47814085 13.3539718,9.47814085 L13.3539718,9.47814085 Z" id="Shape"></path>
                </g>
                <g id="сохранить" transform="translate(144.000000, 1.000000)">
                    <path d="M10.110169,4.85923944 L11.777831,4.85923944 C11.909662,4.85923944 12.0158873,4.74667606 12.0158873,4.608 L12.0158873,0.589183099 C12.0158873,0.450507042 11.9094085,0.337943662 11.777831,0.337943662 L10.110169,0.337943662 C9.97833803,0.337943662 9.87211268,0.450507042 9.87211268,0.589183099 L9.87211268,4.608 C9.87185915,4.74667606 9.97833803,4.85923944 10.110169,4.85923944 L10.110169,4.85923944 Z" id="Shape"></path>
                    <path d="M15.5920563,0.100901408 L13.0124789,0.100901408 L13.0124789,5.07295775 C13.0124789,5.51383099 12.6157183,5.87104225 12.1259155,5.87104225 L4.68101408,5.87104225 C4.19146479,5.87104225 3.7944507,5.51383099 3.7944507,5.07295775 L3.7944507,0.100901408 L2.24214085,0.100901408 C1.01814085,0.100901408 0.0258591549,1.0931831 0.0258591549,2.31743662 L0.0258591549,15.6670986 C0.0258591549,16.8913521 1.01814085,17.8836338 2.24214085,17.8836338 L15.5920563,17.8836338 C16.8160563,17.8836338 17.808338,16.8913521 17.808338,15.6670986 L17.808338,2.31743662 L15.5920563,0.100901408 L15.5920563,0.100901408 Z M15.2946761,14.8322535 L15.2946761,14.8322535 C15.2944225,15.1813521 14.9800563,15.4650423 14.5919155,15.4650423 L3.24228169,15.4650423 C2.85414085,15.4650423 2.53977465,15.1813521 2.53977465,14.8322535 L2.53977465,8.40726761 C2.53977465,8.05766197 2.85439437,7.77447887 3.24228169,7.77447887 L14.5924225,7.77447887 C14.9800563,7.77447887 15.2949296,8.05766197 15.2949296,8.40726761 L15.2949296,14.8322535 L15.2946761,14.8322535 Z" id="Shape"></path>
                    <path d="M13.3539718,13.2809577 L4.48073239,13.2809577 C4.32887324,13.2809577 4.20616901,13.4039155 4.20616901,13.5555211 C4.20616901,13.7076338 4.32912676,13.830338 4.48073239,13.830338 L13.3539718,13.830338 C13.5055775,13.830338 13.6285352,13.7076338 13.6285352,13.5555211 C13.6285352,13.4039155 13.5053239,13.2809577 13.3539718,13.2809577 L13.3539718,13.2809577 Z" id="Shape"></path>
                    <path d="M13.3539718,12.0133521 L4.48073239,12.0133521 C4.32887324,12.0133521 4.20616901,12.1363099 4.20616901,12.2879155 C4.20616901,12.4400282 4.32912676,12.5627324 4.48073239,12.5627324 L13.3539718,12.5627324 C13.5055775,12.5627324 13.6285352,12.4400282 13.6285352,12.2879155 C13.6285352,12.1363099 13.5053239,12.0133521 13.3539718,12.0133521 L13.3539718,12.0133521 Z" id="Shape"></path>
                    <path d="M13.3539718,10.7457465 L4.48073239,10.7457465 C4.32887324,10.7457465 4.20616901,10.8687042 4.20616901,11.0203099 C4.20616901,11.1724225 4.32912676,11.2951268 4.48073239,11.2951268 L13.3539718,11.2951268 C13.5055775,11.2951268 13.6285352,11.1724225 13.6285352,11.0203099 C13.6285352,10.8687042 13.5053239,10.7457465 13.3539718,10.7457465 L13.3539718,10.7457465 Z" id="Shape"></path>
                    <path d="M13.3539718,9.47814085 L4.48073239,9.47814085 C4.32887324,9.47814085 4.20616901,9.60109859 4.20616901,9.75270423 C4.20616901,9.9048169 4.32912676,10.0275211 4.48073239,10.0275211 L13.3539718,10.0275211 C13.5055775,10.0275211 13.6285352,9.9048169 13.6285352,9.75270423 C13.6285352,9.60109859 13.5053239,9.47814085 13.3539718,9.47814085 L13.3539718,9.47814085 Z" id="Shape"></path>
                </g>
                <g id="добавить-вкладку" transform="translate(96.000000, 1.000000)">
                    <path d="M4.14813187,2.40021978 L4.14813187,2.51956044 L4.14813187,4.14791209 L0,4.14791209 L0.804615385,1.64769231 C0.804615385,1.64769231 1.25076923,0.647032967 2.30945055,0.429230769 C3.27230769,0.617142857 4.08593407,1.42043956 4.14813187,2.40021978 L4.14813187,2.40021978 Z" id="Shape"></path>
                    <path d="M19.7731868,14.1072527 C19.7424176,14.5861538 19.5257143,15.0978022 19.1208791,15.5259341 L13.7630769,18.0685714 C12.8426374,18.4762637 11.7725275,18.4485714 10.9065934,18.0685714 L5.40065934,15.5261538 C4.99626374,15.098022 4.77956044,14.5863736 4.74879121,14.1074725 L4.72769231,14.1074725 L4.72769231,11.9753846 L4.72769231,11.1224176 L4.72769231,4.36197802 L4.72769231,2.22989011 L4.72769231,2.11054945 C4.65648352,0.988791209 3.60065934,0.0975824176 2.4632967,0.0975824176 L4.72769231,0.0975824176 L4.73450549,0.0975824176 L6.86,0.0975824176 L7.28637363,0.0975824176 L17.6479121,0.0975824176 C18.8252747,0.0975824176 19.78,1.05208791 19.78,2.22989011 L19.78,11.1224176 L19.78,11.9753846 L19.78,13.9002198 C19.7813187,13.9246154 19.7795604,13.9503297 19.78,13.9751648 L19.78,14.1076923 L19.7731868,14.1076923 L19.7731868,14.1072527 Z M15.1578022,8.78461538 L12.8395604,8.78461538 L12.8395604,6.46637363 C12.8395604,6.14615385 12.58,5.88681319 12.2597802,5.88681319 C11.9397802,5.88681319 11.6802198,6.14637363 11.6802198,6.46637363 L11.6802198,8.78461538 L9.36197802,8.78461538 C9.04175824,8.78461538 8.78241758,9.04417582 8.78241758,9.36417582 C8.78241758,9.6843956 9.04197802,9.94395604 9.36197802,9.94395604 L11.6804396,9.94395604 L11.6804396,12.2621978 C11.6804396,12.5824176 11.94,12.841978 12.26,12.841978 C12.5802198,12.841978 12.8397802,12.5824176 12.8397802,12.2621978 L12.8397802,9.94395604 L15.158022,9.94395604 C15.4782418,9.94395604 15.7378022,9.6843956 15.7378022,9.36417582 C15.7373626,9.04417582 15.478022,8.78461538 15.1578022,8.78461538 L15.1578022,8.78461538 Z" id="Shape"></path>
                </g>
                <g id="открыть" transform="translate(48.000000, 1.000000)">
                    <path d="M19.8782255,15.4794521 L19.8782255,6.39726027 C19.8782255,5.61643836 19.2206912,4.95890411 18.3576775,4.79452055 L18.3576775,1.36986301 C18.3576775,0.616438356 17.7412392,0 16.9878145,0 L4.50836246,0 C3.7549378,0 3.13849945,0.616438356 3.13849945,1.36986301 L3.13849945,3.69863014 L1.31658164,3.69863014 C1.26178712,3.69863014 1.2069926,3.69863014 1.15219808,3.71232877 C0.398773419,3.79452055 -0.0943772656,4.53424658 0.0152117755,5.28767123 L0.193293967,6.54794521 L2.0700063,15.4246575 C2.26178712,16.5479452 2.98781452,17.4794521 4.12480082,17.4794521 L17.302883,17.4794521 L17.4535679,17.4794521 L18.7275405,17.4794521 C18.6453488,17.4794521 18.5768556,17.4657534 18.4946638,17.4383562 C18.5357597,17.4520548 18.5905542,17.4520548 18.6453488,17.4520548 C19.9878145,17.4383562 19.8782255,15.4794521 19.8782255,15.4794521 L19.8782255,15.4794521 Z M17.7412392,16.6575342 C17.6864447,16.5753425 17.6453488,16.4931507 17.6042529,16.4109589 C17.6179515,16.3972603 17.6316501,16.3972603 17.6453488,16.3835616 C17.672746,16.4657534 17.7001433,16.5616438 17.7412392,16.6575342 L17.7412392,16.6575342 Z M3.98781452,1.36986301 C3.98781452,1.08219178 4.22069123,0.835616438 4.52206109,0.835616438 L17.0015131,0.835616438 C17.2891844,0.835616438 17.5357597,1.06849315 17.5357597,1.36986301 L17.5357597,15.1917808 C17.5357597,15.3835616 17.4398693,15.5479452 17.2891844,15.630137 C17.2343899,15.4794521 17.2069926,15.3835616 17.2069926,15.3835616 L15.6042529,8.16438356 C15.4398693,7.26027397 14.6042529,6.52054795 13.7001433,6.52054795 L8.72754054,6.52054795 L8.02891041,4.91780822 C7.83712958,4.19178082 6.63165013,3.68493151 5.8919241,3.68493151 L3.98781452,3.68493151 L3.98781452,1.36986301 L3.98781452,1.36986301 Z" id="Shape"></path>
                    <rect id="Rectangle-path" x="9" y="9" width="6.30136986" height="0.835616438"></rect>
                    <rect id="Rectangle-path" x="10" y="9" width="5.53424658" height="0.835616438"></rect>
                </g>
                <path d="M10,0 C4.47708333,0 0,4.47708333 0,10 C0,15.5229167 4.47708333,20 10,20 C15.5229167,20 20,15.5229167 20,10 C20,4.47708333 15.5229167,0 10,0 L10,0 Z M13.7766667,11.5625 L11.5625,11.5625 L11.5625,13.7766667 C11.5625,14.69375 10.8591667,15.4433333 10,15.4433333 C9.14083333,15.4433333 8.4375,14.69375 8.4375,13.7766667 L8.4375,11.5625 L6.22291667,11.5625 C5.30625,11.5625 4.55625,10.8591667 4.55625,10 C4.55625,9.14083333 5.30625,8.4375 6.22291667,8.4375 L8.4375,8.4375 L8.4375,6.22333333 C8.4375,5.30625 9.14083333,4.55666667 10,4.55666667 C10.8591667,4.55666667 11.5625,5.30625 11.5625,6.22333333 L11.5625,8.4375 L13.7766667,8.4375 C14.69375,8.4375 15.4433333,9.14083333 15.4433333,10 C15.4433333,10.8595833 14.6941667,11.5625 13.7766667,11.5625 L13.7766667,11.5625 Z" id="создать"></path>
            </g>
            <g id="icons-copy" transform="translate(30.000000, 30.000000)">
                <g id="удалить" transform="translate(427.000000, 0.000000)">
                    <path d="M2.69940317,58.5803429 C2.7865204,59.3643979 3.49711076,60 4.28579321,60 L12.8570639,60 C13.6460857,60 14.3563135,59.3646067 14.443454,58.5803429 L15.7142857,47.1428571 L1.42857143,47.1428571 L2.69940317,58.5803429 L2.69940317,58.5803429 Z M4.28571429,42.8571429 L5.35714286,40 L11.7857143,40 L12.8571429,42.8571429 L15.7142857,42.8571429 C17.1428571,42.8571429 17.1428571,45.7142857 17.1428571,45.7142857 L8.57142857,45.7142857 L0,45.7142857 C0,45.7142857 0,42.8571429 1.42857143,42.8571429 L4.28571429,42.8571429 L4.28571429,42.8571429 Z M5.71428571,42.8571429 L11.4285714,42.8571429 L10.7142857,41.4285714 L6.42857143,41.4285714 L5.71428571,42.8571429 L5.71428571,42.8571429 Z" id="Shape" fill="#4A90E2"></path>
                    <path d="M92.096,58.2554 L80.7446,58.2554 L80.7446,41.7446 L92.096,41.7446 L92.096,44.8886 L93.8406,46.3444 L93.8406,41.09 C93.8406,40.4884 93.3522,40 92.75,40 L80.0908,40 C79.4884,40 79,40.4884 79,41.09 L79,58.91 C79,59.5114 79.4884,60 80.0908,60 L92.75,60 C93.3522,60 93.8406,59.5116 93.8406,58.9102 L93.8406,53.675 L92.096,55.13 L92.096,58.2554 L92.096,58.2554 Z" id="Shape" fill="#4A90E2"></path>
                    <polygon id="Shape" fill="#4A90E2" points="95.698 50.2138 89.4516 45 89.4516 47.945 84 47.945 84 52.4806 89.4516 52.4806 89.4516 55.4256"></polygon>
                    <path d="M92.096,18.2554 L80.7446,18.2554 L80.7446,1.7446 L92.096,1.7446 L92.096,4.8886 L93.8406,6.3444 L93.8406,1.09 C93.8406,0.4884 93.3522,0 92.75,0 L80.0908,0 C79.4884,0 79,0.4884 79,1.09 L79,18.91 C79,19.5114 79.4884,20 80.0908,20 L92.75,20 C93.3522,20 93.8406,19.5116 93.8406,18.9102 L93.8406,13.675 L92.096,15.13 L92.096,18.2554 L92.096,18.2554 Z" id="Shape-Copy-8" fill="#2D63A3"></path>
                    <polygon id="Shape-Copy-7" fill="#2D63A3" points="95.698 10.2138 89.4516 5 89.4516 7.945 84 7.945 84 12.4806 89.4516 12.4806 89.4516 15.4256"></polygon>
                    <polygon id="Shape" fill="#4A4A4A" points="92.414 116.864605 90.5493945 115 86.207 119.342395 81.8646055 115 80 116.864605 84.3423945 121.207 80 125.549395 81.8646055 127.414 86.207 123.071605 90.5493945 127.414 92.414 125.549395 88.0716055 121.207"></polygon>
                    <polygon id="Shape-Copy-5" fill="#FFFFFF" points="62.414 116.864605 60.5493945 115 56.207 119.342395 51.8646055 115 50 116.864605 54.3423945 121.207 50 125.549395 51.8646055 127.414 56.207 123.071605 60.5493945 127.414 62.414 125.549395 58.0716055 121.207"></polygon>
                </g>
                <path d="M378,45.6956522 L378,57.4341063 C378,58.2943786 378.698691,59 379.560569,59 L390.521739,59 L390.521739,54.302862 C390.521739,53.4330746 391.224585,52.7391304 392.091589,52.7391304 L396,52.7391304 L396,45.6956522 L378,45.6956522 L378,45.6956522 L378,45.6956522 Z M378,44.9130435 L378,42.5658937 C378,41.7010745 378.705621,41 379.565894,41 L394.434106,41 C395.298926,41 396,41.6991805 396,42.5588659 L396,44.9130435 L378,44.9130435 L378,44.9130435 L378,44.9130435 Z M391.304348,59 L391.304348,54.3066403 C391.304348,53.8731514 391.657285,53.5217391 392.079739,53.5217391 L396,53.5217391 L391.304348,59 L391.304348,59 L391.304348,59 Z M380.347826,48.0434783 L380.347826,48.826087 L393.652174,48.826087 L393.652174,48.0434783 L380.347826,48.0434783 L380.347826,48.0434783 L380.347826,48.0434783 Z M380.347826,50.3913043 L380.347826,51.173913 L393.652174,51.173913 L393.652174,50.3913043 L380.347826,50.3913043 L380.347826,50.3913043 L380.347826,50.3913043 Z M380.347826,52.7391304 L380.347826,53.5217391 L388.956522,53.5217391 L388.956522,52.7391304 L380.347826,52.7391304 L380.347826,52.7391304 L380.347826,52.7391304 Z M380.347826,55.0869565 L380.347826,55.8695652 L388.956522,55.8695652 L388.956522,55.0869565 L380.347826,55.0869565 L380.347826,55.0869565 L380.347826,55.0869565 Z" id="note-text" fill="#4A90E2"></path>
                <g id="ссылка" transform="translate(332.000000, 41.000000)" fill="#4A90E2">
                    <path d="M13.6146758,10.5109121 L16.1214231,8.00376923 C17.9501044,6.17548352 17.9501044,3.19994505 16.1214231,1.37165934 C14.2929396,-0.45721978 11.3175989,-0.45721978 9.48911538,1.37165934 L5.87151099,4.98926374 C4.04282967,6.81754945 4.04282967,9.79308791 5.87151099,11.6213736 C6.14151099,11.8915714 6.43702747,12.1206264 6.74975275,12.3109121 L8.68643407,10.374033 C8.31753297,10.2858132 7.96762088,10.0996813 7.68041209,9.81267033 C6.84924725,8.98150549 6.84924725,7.62893407 7.68041209,6.79796703 L11.2980165,3.18036264 C12.1291813,2.3491978 13.4817527,2.3491978 14.3127198,3.18036264 C15.1438846,4.01152747 15.1438846,5.3639011 14.3127198,6.19506593 L13.2499286,7.25805495 C13.6878626,8.2888022 13.8089176,9.42240659 13.6146758,10.5109121 L13.6146758,10.5109121 Z" id="Shape"></path>
                    <path d="M3.87840659,8.1 L1.37165934,10.6069451 C-0.45721978,12.4354286 -0.45721978,15.4107692 1.37165934,17.2392527 C3.19994505,19.0679341 6.17548352,19.0679341 8.00396703,17.2392527 L11.6213736,13.6216484 C13.4500549,11.7931648 13.4498571,8.81782418 11.6213736,6.98953846 C11.3515714,6.71934066 11.0560549,6.49028571 10.7433297,6.3 L8.80664835,8.23687912 C9.17535165,8.3252967 9.52526374,8.51103297 9.81267033,8.79824176 C10.6438352,9.62940659 10.6438352,10.9817802 9.81267033,11.8129451 L6.19486813,15.4305495 C5.3637033,16.2617143 4.01132967,16.2617143 3.18016484,15.4305495 C2.349,14.5993846 2.349,13.247011 3.18016484,12.4158462 L4.24315385,11.3530549 C3.80502198,10.3223077 3.68396703,9.18850549 3.87840659,8.1 L3.87840659,8.1 Z" id="Shape"></path>
                </g>
                <path d="M285.818182,43 C284.94,43 284.211364,43.5278102 284.039091,44.2341501 L294,52.7576818 L303.960909,44.2341501 C303.788409,43.5278102 303.06,43 302.181818,43 L285.818182,43 M284,45.3006612 L284,54.8708674 L289.5925,50.0853753 L284,45.2998833 M304,45.2998833 L298.488636,50.0159471 L304,54.7320109 L304,45.2979385 M297.845455,50.5643718 L294.321818,53.579541 C294.144305,53.731373 293.856581,53.731373 293.679068,53.579541 L290.235886,50.6332166 L284.079068,55.9015947 C284.306341,56.5388954 284.99725,57 285.817705,57 L302.181341,57 C303.048841,57 303.769295,56.4850253 303.952932,55.7917153 L297.844523,50.5651497" id="письмо" fill="#4A90E2"></path>
                <path d="M241.158594,41.0004923 C241.00371,41.01858 240.887121,41.1501163 240.887758,41.3060517 L240.887758,48.6255879 C240.888207,48.7941573 241.024748,48.930698 241.193317,48.9311473 L250.804549,48.9311473 C250.973118,48.930698 251.109659,48.7941573 251.110108,48.6255879 L251.110108,41.3060517 C251.109659,41.1374824 250.973118,41.0009416 250.804549,41.0004923 L241.193317,41.0004923 C241.181752,40.9998359 241.170159,40.9998359 241.158594,41.0004923 L241.158594,41.0004923 Z M242.547501,42.3268978 L249.450365,42.3268978 C249.711071,42.3268978 249.922593,42.5384196 249.922593,42.799126 C249.922593,43.0598321 249.711071,43.2713541 249.450365,43.2713541 L242.547501,43.2713541 C242.286716,43.2713541 242.075273,43.0598321 242.075273,42.799126 C242.075273,42.5384196 242.286716,42.3268978 242.547501,42.3268978 L242.547501,42.3268978 Z M242.547501,44.3755346 L249.450365,44.3755346 C249.711071,44.3755346 249.922593,44.5801119 249.922593,44.8408182 C249.922593,45.1016028 249.711071,45.3130464 249.450365,45.3130464 L242.547501,45.3130464 C242.286716,45.3130464 242.075273,45.1016028 242.075273,44.8408182 C242.075273,44.5801119 242.286716,44.3755346 242.547501,44.3755346 L242.547501,44.3755346 Z M253.276802,46.0283331 C253.215665,46.0283331 253.151104,46.0310821 253.0893,46.0352777 L252.179566,46.0352777 C252.010997,46.035727 251.874456,46.1722677 251.874007,46.3408371 L251.874007,49.7019903 C251.789575,49.6937547 251.668578,49.6718311 251.512891,49.6950458 L240.116915,49.6950458 C240.12519,49.6105752 240.147035,49.4966004 240.123859,49.3408747 L240.123859,46.3408371 C240.123656,46.2586499 240.090441,46.1799905 240.031677,46.1225318 C239.972912,46.0650732 239.893526,46.0336339 239.811355,46.0352777 C239.414571,46.0360555 239.018034,46.0325221 238.616896,46.0352777 C238.612267,46.0351727 238.607636,46.0351727 238.603007,46.0352777 C238.597869,46.0352777 238.594373,46.0348777 238.589118,46.0352777 C238.584489,46.0351727 238.579858,46.0351727 238.575229,46.0352777 C237.309188,46.1183347 236.241449,47.1471127 236.026586,48.3755848 C236.025929,48.3871497 236.025929,48.3987425 236.026586,48.4103075 C235.97686,49.3841128 236.020066,50.3531136 236.005752,51.2992326 C236.005726,51.3015474 236.005726,51.3038623 236.005752,51.3061771 C236.014066,52.5397081 235.98403,53.7904869 236.012697,55.0353906 C236.01434,55.047089 236.016659,55.0586826 236.019641,55.0701132 C236.204622,56.3108981 237.254452,57.3495485 238.512728,57.4729211 C238.51967,57.4731573 238.526619,57.4731573 238.533562,57.4729211 C238.967484,57.4847257 239.394414,57.4761412 239.811355,57.4798657 C239.893526,57.4815095 239.972912,57.4500701 240.031677,57.3926115 C240.090441,57.3351529 240.123656,57.2564934 240.123859,57.1743063 L240.123859,53.8062085 C240.208291,53.8144841 240.322226,53.8363286 240.47803,53.813153 L251.880951,53.813153 C251.872678,53.8975845 251.850752,54.0184645 251.874007,54.1742686 L251.874007,57.1743063 C251.87421,57.2564934 251.907425,57.3351529 251.966189,57.3926115 C252.024954,57.4500701 252.10434,57.4815095 252.186511,57.4798657 C252.841884,57.4549245 253.675832,57.6224703 254.436539,57.1881953 C254.439283,57.1866175 254.440737,57.1828242 254.443483,57.1812508 C255.38274,56.6795638 256.082663,55.657425 255.992114,54.5353843 C255.986349,52.5382052 256.004974,50.5381353 255.985169,48.535309 C255.983526,48.5236106 255.981207,48.512017 255.978225,48.5005864 C255.827283,47.1846241 254.665262,46.0728039 253.332358,46.0283331 C253.312085,46.0275554 253.297116,46.0283331 253.276802,46.0283331 L253.276802,46.0283331 Z M242.547501,46.4172269 L249.450365,46.4172269 C249.711071,46.4172269 249.922593,46.6287487 249.922593,46.8894551 C249.922593,47.1501612 249.711071,47.3616832 249.450365,47.3616832 L242.547501,47.3616832 C242.286716,47.3616832 242.075273,47.1501612 242.075273,46.8894551 C242.075273,46.6287487 242.286716,46.4172269 242.547501,46.4172269 L242.547501,46.4172269 Z M253.644862,47.3964059 C254.138157,47.3964059 254.533762,47.8236492 254.533762,48.3478067 C254.533762,48.8719644 254.138157,49.292263 253.644862,49.292263 C253.151528,49.292263 252.749018,48.8719644 252.749018,48.3478067 C252.749018,47.8236492 253.151528,47.3964059 253.644862,47.3964059 L253.644862,47.3964059 Z M253.644862,47.764466 C253.34443,47.764466 253.096244,48.0285907 253.096244,48.3478067 C253.096244,48.6669838 253.34443,48.9242028 253.644862,48.9242028 C253.945255,48.9242028 254.186536,48.6669838 254.186536,48.3478067 C254.186536,48.0285907 253.945255,47.764466 253.644862,47.764466 L253.644862,47.764466 Z M241.158594,54.5770515 C241.00371,54.5951392 240.887121,54.7266755 240.887758,54.8826109 L240.887758,57.2437516 L240.887758,59.4590572 C240.888207,59.6276265 241.024748,59.7641672 241.193317,59.7646165 L250.804549,59.7646165 C250.973118,59.7641672 251.109659,59.6276265 251.110108,59.4590572 L251.110108,54.8826109 C251.109659,54.7140415 250.973118,54.5775008 250.804549,54.5770515 L241.193317,54.5770515 C241.181752,54.5763951 241.170159,54.5763951 241.158594,54.5770515 L241.158594,54.5770515 Z" id="печать" fill="#4A90E2"></path>
                <g id="сохранить-как" transform="translate(190.000000, 41.000000)" fill="#4A90E2">
                    <path d="M10.110169,4.85923944 L11.777831,4.85923944 C11.909662,4.85923944 12.0158873,4.74667606 12.0158873,4.608 L12.0158873,0.589183099 C12.0158873,0.450507042 11.9094085,0.337943662 11.777831,0.337943662 L10.110169,0.337943662 C9.97833803,0.337943662 9.87211268,0.450507042 9.87211268,0.589183099 L9.87211268,4.608 C9.87185915,4.74667606 9.97833803,4.85923944 10.110169,4.85923944 L10.110169,4.85923944 Z" id="Shape"></path>
                    <path d="M15.5920563,0.100901408 L13.0124789,0.100901408 L13.0124789,5.07295775 C13.0124789,5.51383099 12.6157183,5.87104225 12.1259155,5.87104225 L4.68101408,5.87104225 C4.19146479,5.87104225 3.7944507,5.51383099 3.7944507,5.07295775 L3.7944507,0.100901408 L2.24214085,0.100901408 C1.01814085,0.100901408 0.0258591549,1.0931831 0.0258591549,2.31743662 L0.0258591549,15.6670986 C0.0258591549,16.8913521 1.01814085,17.8836338 2.24214085,17.8836338 L15.5920563,17.8836338 C16.8160563,17.8836338 17.808338,16.8913521 17.808338,15.6670986 L17.808338,2.31743662 L15.5920563,0.100901408 L15.5920563,0.100901408 Z M15.2946761,14.8322535 L15.2946761,14.8322535 C15.2944225,15.1813521 14.9800563,15.4650423 14.5919155,15.4650423 L3.24228169,15.4650423 C2.85414085,15.4650423 2.53977465,15.1813521 2.53977465,14.8322535 L2.53977465,8.40726761 C2.53977465,8.05766197 2.85439437,7.77447887 3.24228169,7.77447887 L14.5924225,7.77447887 C14.9800563,7.77447887 15.2949296,8.05766197 15.2949296,8.40726761 L15.2949296,14.8322535 L15.2946761,14.8322535 Z M16.9123944,5.20605634 L15.8891831,5.20605634 L15.8891831,6.22876056 C15.8891831,6.49926761 15.6703944,6.71830986 15.3998873,6.71830986 C15.1301408,6.71830986 14.9105915,6.49926761 14.9105915,6.22876056 L14.9105915,5.20605634 L13.8873803,5.20605634 C13.6171268,5.20605634 13.397831,4.98701408 13.397831,4.71650704 C13.397831,4.44625352 13.6168732,4.22695775 13.8873803,4.22695775 L14.9105915,4.22695775 L14.9105915,3.20425352 C14.9105915,2.93374648 15.1298873,2.71470423 15.3998873,2.71470423 C15.6701408,2.71470423 15.8891831,2.93374648 15.8891831,3.20425352 L15.8891831,4.22695775 L16.9123944,4.22695775 C17.1826479,4.22695775 17.4019437,4.44625352 17.4019437,4.71650704 C17.4019437,4.98701408 17.1826479,5.20605634 16.9123944,5.20605634 L16.9123944,5.20605634 Z" id="Shape"></path>
                    <path d="M13.3539718,13.2809577 L4.48073239,13.2809577 C4.32887324,13.2809577 4.20616901,13.4039155 4.20616901,13.5555211 C4.20616901,13.7076338 4.32912676,13.830338 4.48073239,13.830338 L13.3539718,13.830338 C13.5055775,13.830338 13.6285352,13.7076338 13.6285352,13.5555211 C13.6285352,13.4039155 13.5053239,13.2809577 13.3539718,13.2809577 L13.3539718,13.2809577 Z" id="Shape"></path>
                    <path d="M13.3539718,12.0133521 L4.48073239,12.0133521 C4.32887324,12.0133521 4.20616901,12.1363099 4.20616901,12.2879155 C4.20616901,12.4400282 4.32912676,12.5627324 4.48073239,12.5627324 L13.3539718,12.5627324 C13.5055775,12.5627324 13.6285352,12.4400282 13.6285352,12.2879155 C13.6285352,12.1363099 13.5053239,12.0133521 13.3539718,12.0133521 L13.3539718,12.0133521 Z" id="Shape"></path>
                    <path d="M13.3539718,10.7457465 L4.48073239,10.7457465 C4.32887324,10.7457465 4.20616901,10.8687042 4.20616901,11.0203099 C4.20616901,11.1724225 4.32912676,11.2951268 4.48073239,11.2951268 L13.3539718,11.2951268 C13.5055775,11.2951268 13.6285352,11.1724225 13.6285352,11.0203099 C13.6285352,10.8687042 13.5053239,10.7457465 13.3539718,10.7457465 L13.3539718,10.7457465 Z" id="Shape"></path>
                    <path d="M13.3539718,9.47814085 L4.48073239,9.47814085 C4.32887324,9.47814085 4.20616901,9.60109859 4.20616901,9.75270423 C4.20616901,9.9048169 4.32912676,10.0275211 4.48073239,10.0275211 L13.3539718,10.0275211 C13.5055775,10.0275211 13.6285352,9.9048169 13.6285352,9.75270423 C13.6285352,9.60109859 13.5053239,9.47814085 13.3539718,9.47814085 L13.3539718,9.47814085 Z" id="Shape"></path>
                </g>
                <g id="сохранить" transform="translate(144.000000, 41.000000)" fill="#4A90E2">
                    <path d="M10.110169,4.85923944 L11.777831,4.85923944 C11.909662,4.85923944 12.0158873,4.74667606 12.0158873,4.608 L12.0158873,0.589183099 C12.0158873,0.450507042 11.9094085,0.337943662 11.777831,0.337943662 L10.110169,0.337943662 C9.97833803,0.337943662 9.87211268,0.450507042 9.87211268,0.589183099 L9.87211268,4.608 C9.87185915,4.74667606 9.97833803,4.85923944 10.110169,4.85923944 L10.110169,4.85923944 Z" id="Shape"></path>
                    <path d="M15.5920563,0.100901408 L13.0124789,0.100901408 L13.0124789,5.07295775 C13.0124789,5.51383099 12.6157183,5.87104225 12.1259155,5.87104225 L4.68101408,5.87104225 C4.19146479,5.87104225 3.7944507,5.51383099 3.7944507,5.07295775 L3.7944507,0.100901408 L2.24214085,0.100901408 C1.01814085,0.100901408 0.0258591549,1.0931831 0.0258591549,2.31743662 L0.0258591549,15.6670986 C0.0258591549,16.8913521 1.01814085,17.8836338 2.24214085,17.8836338 L15.5920563,17.8836338 C16.8160563,17.8836338 17.808338,16.8913521 17.808338,15.6670986 L17.808338,2.31743662 L15.5920563,0.100901408 L15.5920563,0.100901408 Z M15.2946761,14.8322535 L15.2946761,14.8322535 C15.2944225,15.1813521 14.9800563,15.4650423 14.5919155,15.4650423 L3.24228169,15.4650423 C2.85414085,15.4650423 2.53977465,15.1813521 2.53977465,14.8322535 L2.53977465,8.40726761 C2.53977465,8.05766197 2.85439437,7.77447887 3.24228169,7.77447887 L14.5924225,7.77447887 C14.9800563,7.77447887 15.2949296,8.05766197 15.2949296,8.40726761 L15.2949296,14.8322535 L15.2946761,14.8322535 Z" id="Shape"></path>
                    <path d="M13.3539718,13.2809577 L4.48073239,13.2809577 C4.32887324,13.2809577 4.20616901,13.4039155 4.20616901,13.5555211 C4.20616901,13.7076338 4.32912676,13.830338 4.48073239,13.830338 L13.3539718,13.830338 C13.5055775,13.830338 13.6285352,13.7076338 13.6285352,13.5555211 C13.6285352,13.4039155 13.5053239,13.2809577 13.3539718,13.2809577 L13.3539718,13.2809577 Z" id="Shape"></path>
                    <path d="M13.3539718,12.0133521 L4.48073239,12.0133521 C4.32887324,12.0133521 4.20616901,12.1363099 4.20616901,12.2879155 C4.20616901,12.4400282 4.32912676,12.5627324 4.48073239,12.5627324 L13.3539718,12.5627324 C13.5055775,12.5627324 13.6285352,12.4400282 13.6285352,12.2879155 C13.6285352,12.1363099 13.5053239,12.0133521 13.3539718,12.0133521 L13.3539718,12.0133521 Z" id="Shape"></path>
                    <path d="M13.3539718,10.7457465 L4.48073239,10.7457465 C4.32887324,10.7457465 4.20616901,10.8687042 4.20616901,11.0203099 C4.20616901,11.1724225 4.32912676,11.2951268 4.48073239,11.2951268 L13.3539718,11.2951268 C13.5055775,11.2951268 13.6285352,11.1724225 13.6285352,11.0203099 C13.6285352,10.8687042 13.5053239,10.7457465 13.3539718,10.7457465 L13.3539718,10.7457465 Z" id="Shape"></path>
                    <path d="M13.3539718,9.47814085 L4.48073239,9.47814085 C4.32887324,9.47814085 4.20616901,9.60109859 4.20616901,9.75270423 C4.20616901,9.9048169 4.32912676,10.0275211 4.48073239,10.0275211 L13.3539718,10.0275211 C13.5055775,10.0275211 13.6285352,9.9048169 13.6285352,9.75270423 C13.6285352,9.60109859 13.5053239,9.47814085 13.3539718,9.47814085 L13.3539718,9.47814085 Z" id="Shape"></path>
                </g>
                <g id="добавить-вкладку" transform="translate(96.000000, 41.000000)" fill="#4A90E2">
                    <path d="M4.14813187,2.40021978 L4.14813187,2.51956044 L4.14813187,4.14791209 L0,4.14791209 L0.804615385,1.64769231 C0.804615385,1.64769231 1.25076923,0.647032967 2.30945055,0.429230769 C3.27230769,0.617142857 4.08593407,1.42043956 4.14813187,2.40021978 L4.14813187,2.40021978 Z" id="Shape"></path>
                    <path d="M19.7731868,14.1072527 C19.7424176,14.5861538 19.5257143,15.0978022 19.1208791,15.5259341 L13.7630769,18.0685714 C12.8426374,18.4762637 11.7725275,18.4485714 10.9065934,18.0685714 L5.40065934,15.5261538 C4.99626374,15.098022 4.77956044,14.5863736 4.74879121,14.1074725 L4.72769231,14.1074725 L4.72769231,11.9753846 L4.72769231,11.1224176 L4.72769231,4.36197802 L4.72769231,2.22989011 L4.72769231,2.11054945 C4.65648352,0.988791209 3.60065934,0.0975824176 2.4632967,0.0975824176 L4.72769231,0.0975824176 L4.73450549,0.0975824176 L6.86,0.0975824176 L7.28637363,0.0975824176 L17.6479121,0.0975824176 C18.8252747,0.0975824176 19.78,1.05208791 19.78,2.22989011 L19.78,11.1224176 L19.78,11.9753846 L19.78,13.9002198 C19.7813187,13.9246154 19.7795604,13.9503297 19.78,13.9751648 L19.78,14.1076923 L19.7731868,14.1076923 L19.7731868,14.1072527 Z M15.1578022,8.78461538 L12.8395604,8.78461538 L12.8395604,6.46637363 C12.8395604,6.14615385 12.58,5.88681319 12.2597802,5.88681319 C11.9397802,5.88681319 11.6802198,6.14637363 11.6802198,6.46637363 L11.6802198,8.78461538 L9.36197802,8.78461538 C9.04175824,8.78461538 8.78241758,9.04417582 8.78241758,9.36417582 C8.78241758,9.6843956 9.04197802,9.94395604 9.36197802,9.94395604 L11.6804396,9.94395604 L11.6804396,12.2621978 C11.6804396,12.5824176 11.94,12.841978 12.26,12.841978 C12.5802198,12.841978 12.8397802,12.5824176 12.8397802,12.2621978 L12.8397802,9.94395604 L15.158022,9.94395604 C15.4782418,9.94395604 15.7378022,9.6843956 15.7378022,9.36417582 C15.7373626,9.04417582 15.478022,8.78461538 15.1578022,8.78461538 L15.1578022,8.78461538 Z" id="Shape"></path>
                </g>
                <g id="открыть" transform="translate(48.000000, 41.000000)" fill="#4A90E2">
                    <path d="M19.8782255,15.4794521 L19.8782255,6.39726027 C19.8782255,5.61643836 19.2206912,4.95890411 18.3576775,4.79452055 L18.3576775,1.36986301 C18.3576775,0.616438356 17.7412392,0 16.9878145,0 L4.50836246,0 C3.7549378,0 3.13849945,0.616438356 3.13849945,1.36986301 L3.13849945,3.69863014 L1.31658164,3.69863014 C1.26178712,3.69863014 1.2069926,3.69863014 1.15219808,3.71232877 C0.398773419,3.79452055 -0.0943772656,4.53424658 0.0152117755,5.28767123 L0.193293967,6.54794521 L2.0700063,15.4246575 C2.26178712,16.5479452 2.98781452,17.4794521 4.12480082,17.4794521 L17.302883,17.4794521 L17.4535679,17.4794521 L18.7275405,17.4794521 C18.6453488,17.4794521 18.5768556,17.4657534 18.4946638,17.4383562 C18.5357597,17.4520548 18.5905542,17.4520548 18.6453488,17.4520548 C19.9878145,17.4383562 19.8782255,15.4794521 19.8782255,15.4794521 L19.8782255,15.4794521 Z M17.7412392,16.6575342 C17.6864447,16.5753425 17.6453488,16.4931507 17.6042529,16.4109589 C17.6179515,16.3972603 17.6316501,16.3972603 17.6453488,16.3835616 C17.672746,16.4657534 17.7001433,16.5616438 17.7412392,16.6575342 L17.7412392,16.6575342 Z M3.98781452,1.36986301 C3.98781452,1.08219178 4.22069123,0.835616438 4.52206109,0.835616438 L17.0015131,0.835616438 C17.2891844,0.835616438 17.5357597,1.06849315 17.5357597,1.36986301 L17.5357597,15.1917808 C17.5357597,15.3835616 17.4398693,15.5479452 17.2891844,15.630137 C17.2343899,15.4794521 17.2069926,15.3835616 17.2069926,15.3835616 L15.6042529,8.16438356 C15.4398693,7.26027397 14.6042529,6.52054795 13.7001433,6.52054795 L8.72754054,6.52054795 L8.02891041,4.91780822 C7.83712958,4.19178082 6.63165013,3.68493151 5.8919241,3.68493151 L3.98781452,3.68493151 L3.98781452,1.36986301 L3.98781452,1.36986301 Z" id="Shape"></path>
                    <rect id="Rectangle-path" x="9" y="9" width="6.30136986" height="0.835616438"></rect>
                    <rect id="Rectangle-path" x="10" y="9" width="5.53424658" height="0.835616438"></rect>
                </g>
                <path d="M10,40 C4.47708333,40 0,44.4770833 0,50 C0,55.5229167 4.47708333,60 10,60 C15.5229167,60 20,55.5229167 20,50 C20,44.4770833 15.5229167,40 10,40 L10,40 Z M13.7766667,51.5625 L11.5625,51.5625 L11.5625,53.7766667 C11.5625,54.69375 10.8591667,55.4433333 10,55.4433333 C9.14083333,55.4433333 8.4375,54.69375 8.4375,53.7766667 L8.4375,51.5625 L6.22291667,51.5625 C5.30625,51.5625 4.55625,50.8591667 4.55625,50 C4.55625,49.1408333 5.30625,48.4375 6.22291667,48.4375 L8.4375,48.4375 L8.4375,46.2233333 C8.4375,45.30625 9.14083333,44.5566667 10,44.5566667 C10.8591667,44.5566667 11.5625,45.30625 11.5625,46.2233333 L11.5625,48.4375 L13.7766667,48.4375 C14.69375,48.4375 15.4433333,49.1408333 15.4433333,50 C15.4433333,50.8595833 14.6941667,51.5625 13.7766667,51.5625 L13.7766667,51.5625 Z" id="создать" fill="#4A90E2"></path>
                <g id="меню" transform="translate(0.000000, 100.000000)">
                    <path d="M25,6.84210526 C25,5.82473862 25.8176457,5 26.8421053,5 C27.8594719,5 28.6842105,5.81764573 28.6842105,6.84210526 C28.6842105,7.85947191 27.8665648,8.68421053 26.8421053,8.68421053 C25.8247386,8.68421053 25,7.8665648 25,6.84210526 Z M30.1578947,6.84210526 C30.1578947,5.82473862 30.9755405,5 32,5 C33.0173666,5 33.8421053,5.81764573 33.8421053,6.84210526 C33.8421053,7.85947191 33.0244595,8.68421053 32,8.68421053 C30.9826334,8.68421053 30.1578947,7.8665648 30.1578947,6.84210526 Z M35.3157895,6.84210526 C35.3157895,5.82473862 36.1334352,5 37.1578947,5 C38.1752614,5 39,5.81764573 39,6.84210526 C39,7.85947191 38.1823543,8.68421053 37.1578947,8.68421053 C36.1405281,8.68421053 35.3157895,7.8665648 35.3157895,6.84210526 Z" id="Rectangle-75" fill="#4A4A4A"></path>
                    <path d="M8.77429714,7.88837023 L0.548370382,13.8708624 C0.245513783,14.0911218 3.55271368e-15,13.9609745 3.55271368e-15,13.5972227 L5.96149684e-15,1.38188816 C5.96149684e-15,1.01050175 0.249358836,0.890785453 0.548370382,1.1082484 L8.77429714,7.09074058 C9.07715374,7.31099993 9.07330869,7.67090729 8.77429714,7.88837023 Z" id="Triangle-2" fill="#4A4A4A"></path>
                    <polygon id="Shape" fill="#4A90E2" points="7.414 42.414 6 41 3.707 43.293 1.414 41 0 42.414 2.293 44.707 0 47 1.414 48.414 3.707 46.121 6 48.414 7.414 47 5.121 44.707"></polygon>
                    <path d="M0,169 C0,159.611159 7.60909491,152 17,152 C26.3888407,152 34,159.609095 34,169 C34,178.388841 26.3909051,186 17,186 C7.61115925,186 0,178.390905 0,169 Z M21.7295775,168.409493 L18.2876186,168.409493 L18.2876186,165.188934 C18.2876186,165.188934 18.3192986,163.987735 17.0522191,164.000095 C15.7851395,164.012455 15.7120595,165.188934 15.7120595,165.188934 L15.7120595,168.409493 L12.2703407,168.409493 C12.2703407,168.409493 11.0057811,168.415013 11.0000211,169.598333 C10.9940211,170.781772 12.2703407,170.819692 12.2703407,170.819692 L15.7120595,170.819692 L15.7120595,174.040491 C15.7120595,174.040491 15.7179395,175.223811 16.9824991,175.229331 C18.2471786,175.234851 18.2876186,174.040491 18.2876186,174.040491 L18.2876186,170.819692 L21.7295775,170.819692 C21.7295775,170.819692 23.013217,170.849092 22.999897,169.663373 C22.9865771,168.477773 21.7295775,168.409493 21.7295775,168.409493 Z" id="Combined-Shape" fill="#FFFFFF"></path>
                    <path d="M65.99936,141 C65.4758433,141 65.0105662,141.337438 64.8494472,141.835995 L63.5176154,145.932929 L59.2094822,145.932929 C58.6859655,145.932929 58.2206884,146.270367 58.0595694,146.769084 C57.8970104,147.266841 58.0749293,147.812598 58.4984466,148.120916 L61.984345,150.65418 L60.6525133,154.751754 C60.4899543,155.249511 60.6678732,155.795268 61.0913905,156.103586 C61.3038692,156.257825 61.5537876,156.334785 61.8024261,156.334785 C62.0523445,156.334785 62.302423,156.257825 62.5134617,156.103586 L65.99936,153.570482 L69.4852583,156.103586 C69.696297,156.257825 69.9463755,156.334785 70.1962939,156.334785 C70.4449324,156.334785 70.6948508,156.257825 70.9073295,156.103586 C71.3308468,155.795268 71.5086057,155.249511 71.3462068,154.750954 L70.014375,150.65418 L73.5015534,148.121716 C73.9250707,147.814038 74.1029896,147.268281 73.9404306,146.769724 C73.7778716,146.271167 73.3140345,145.933569 72.7903578,145.933569 L68.4811046,145.933569 L67.1492729,141.835995 C66.9867139,141.337438 66.5228767,141.00064 65.99936,141 L65.99936,141 L65.99936,141 Z" id="Shape" fill="#FD982C"></path>
                    <path d="M65.99936,171 C65.4758433,171 65.0105662,171.337438 64.8494472,171.835995 L63.5176154,175.932929 L59.2094822,175.932929 C58.6859655,175.932929 58.2206884,176.270367 58.0595694,176.769084 C57.8970104,177.266841 58.0749293,177.812598 58.4984466,178.120916 L61.984345,180.65418 L60.6525133,184.751754 C60.4899543,185.249511 60.6678732,185.795268 61.0913905,186.103586 C61.3038692,186.257825 61.5537876,186.334785 61.8024261,186.334785 C62.0523445,186.334785 62.302423,186.257825 62.5134617,186.103586 L65.99936,183.570482 L69.4852583,186.103586 C69.696297,186.257825 69.9463755,186.334785 70.1962939,186.334785 C70.4449324,186.334785 70.6948508,186.257825 70.9073295,186.103586 C71.3308468,185.795268 71.5086057,185.249511 71.3462068,184.750954 L70.014375,180.65418 L73.5015534,178.121716 C73.9250707,177.814038 74.1029896,177.268281 73.9404306,176.769724 C73.7778716,176.271167 73.3140345,175.933569 72.7903578,175.933569 L68.4811046,175.933569 L67.1492729,171.835995 C66.9867139,171.337438 66.5228767,171.00064 65.99936,171 L65.99936,171 L65.99936,171 Z" id="Shape-Copy-6" fill="#FFFFFF"></path>
                    <path d="M113.625,165.375 L113.625,161.625 C113.625,161.28125 113.34375,161 113,161 C112.65625,161 112.375,161.28125 112.375,161.625 L112.375,165.375 L108.625,165.375 C108.28125,165.375 108,165.65625 108,166 C108,166.34375 108.28125,166.625 108.625,166.625 L112.375,166.625 L112.375,170.375 C112.375,170.71875 112.65625,171 113,171 C113.34375,171 113.625,170.71875 113.625,170.375 L113.625,166.625 L117.375,166.625 C117.71875,166.625 118,166.34375 118,166 C118,165.65625 117.71875,165.375 117.375,165.375 L113.625,165.375 Z" id="Shape" fill="#4A4A4A"></path>
                    <path d="M49.3999971,255.200095 L40.0485033,255.200095 L43.2243182,252.02428 C43.4586193,251.789979 43.4584693,251.410177 43.2243182,251.175726 C42.9900171,250.941425 42.6102153,250.941425 42.3757642,251.175726 L38.1757446,255.375745 C37.9414435,255.610047 37.9414435,255.989998 38.1755946,256.224149 L42.3756142,260.424169 C42.4927648,260.54132 42.6463655,260.59997 42.7999662,260.59997 C42.9534169,260.59997 43.1070177,260.54132 43.2243182,260.424019 C43.4586193,260.189868 43.4584693,259.809916 43.2243182,259.575765 L40.0483533,256.4001 L49.3999971,256.4001 C49.7313487,256.4001 50.0001499,256.131299 49.9999999,255.800097 C49.9999999,255.468746 49.7313487,255.200095 49.3999971,255.200095 L49.3999971,255.200095 Z" id="Shape-Copy" fill="#4A90E2" transform="translate(44.000000, 255.799985) scale(-1, 1) translate(-44.000000, -255.799985) "></path>
                    <path d="M266,89.8333333 C266,91.02825 265.004444,92 263.777778,92 L248.222222,92 L248.222222,88.75 L262.666667,88.75 L262.666667,84.4166667 L250.444444,84.4166667 L250.444444,86.5833333 L246,82.7916667 L250.444444,79 L250.444444,81.1666667 L263.777778,81.1666667 C265.004444,81.1666667 266,82.1373333 266,83.3333333 L266,89.8333333 Z" id="Shape" fill="#4A4A4A"></path>
                    <path d="M266,50.8333333 C266,52.02825 265.004444,53 263.777778,53 L248.222222,53 L248.222222,49.75 L262.666667,49.75 L262.666667,45.4166667 L250.444444,45.4166667 L250.444444,47.5833333 L246,43.7916667 L250.444444,40 L250.444444,42.1666667 L263.777778,42.1666667 C265.004444,42.1666667 266,43.1373333 266,44.3333333 L266,50.8333333 Z" id="Shape-Copy-9" fill="#929292"></path>
                    <path d="M348,94 L344,94 C343.4,94 343,93.6 343,93 L343,89 C343,88.4 343.4,88 344,88 C344.6,88 345,88.4 345,89 L345,92 L348,92 C348.6,92 349,92.4 349,93 C349,93.6 348.6,94 348,94 Z M366,94 L362,94 C361.4,94 361,93.6 361,93 C361,92.4 361.4,92 362,92 L365,92 L365,89 C365,88.4 365.4,88 366,88 C366.6,88 367,88.4 367,89 L367,93 C367,93.6 366.6,94 366,94 Z M366,82 C365.4,82 365,81.6 365,81 L365,78 L362,78 C361.4,78 361,77.6 361,77 C361,76.4 361.4,76 362,76 L366,76 C366.6,76 367,76.4 367,77 L367,81 C367,81.6 366.6,82 366,82 Z M344,82 C343.4,82 343,81.6 343,81 L343,77 C343,76.4 343.4,76 344,76 L348,76 C348.6,76 349,76.4 349,77 C349,77.6 348.6,78 348,78 L345,78 L345,81 C345,81.6 344.6,82 344,82 Z M353.116875,85.616875 L351.285,87.51125 L350,85.993125 L350,90 L353.991875,90 L352.473125,88.699375 L354.366875,86.866875 L353.116875,85.616875 Z M356.008125,80 L357.526875,81.300625 L355.633125,83.133125 L356.883125,84.383125 L358.715,82.48875 L360,84.006875 L360,80 L356.008125,80 Z" id="Combined-Shape" fill="#4A4A4A"></path>
                    <path d="M398,94 L394,94 C393.4,94 393,93.6 393,93 L393,89 C393,88.4 393.4,88 394,88 C394.6,88 395,88.4 395,89 L395,92 L398,92 C398.6,92 399,92.4 399,93 C399,93.6 398.6,94 398,94 Z M416,94 L412,94 C411.4,94 411,93.6 411,93 C411,92.4 411.4,92 412,92 L415,92 L415,89 C415,88.4 415.4,88 416,88 C416.6,88 417,88.4 417,89 L417,93 C417,93.6 416.6,94 416,94 Z M416,82 C415.4,82 415,81.6 415,81 L415,78 L412,78 C411.4,78 411,77.6 411,77 C411,76.4 411.4,76 412,76 L416,76 C416.6,76 417,76.4 417,77 L417,81 C417,81.6 416.6,82 416,82 Z M394,82 C393.4,82 393,81.6 393,81 L393,77 C393,76.4 393.4,76 394,76 L398,76 C398.6,76 399,76.4 399,77 C399,77.6 398.6,78 398,78 L395,78 L395,81 C395,81.6 394.6,82 394,82 Z M403.081875,88.105625 L404.366875,89.62375 L404.366875,85.616875 L400.375,85.616875 L401.89375,86.9175 L400,88.75 L401.25,90 L403.081875,88.105625 Z M409.625,84.383125 L408.10625,83.0825 L410,81.25 L408.75,80 L406.918125,81.894375 L405.633125,80.37625 L405.633125,84.383125 L409.625,84.383125 Z" id="Combined-Shape-Copy-2" fill="#4A4A4A"></path>
                    <path d="M398,54 L394,54 C393.4,54 393,53.6 393,53 L393,49 C393,48.4 393.4,48 394,48 C394.6,48 395,48.4 395,49 L395,52 L398,52 C398.6,52 399,52.4 399,53 C399,53.6 398.6,54 398,54 Z M416,54 L412,54 C411.4,54 411,53.6 411,53 C411,52.4 411.4,52 412,52 L415,52 L415,49 C415,48.4 415.4,48 416,48 C416.6,48 417,48.4 417,49 L417,53 C417,53.6 416.6,54 416,54 Z M416,42 C415.4,42 415,41.6 415,41 L415,38 L412,38 C411.4,38 411,37.6 411,37 C411,36.4 411.4,36 412,36 L416,36 C416.6,36 417,36.4 417,37 L417,41 C417,41.6 416.6,42 416,42 Z M394,42 C393.4,42 393,41.6 393,41 L393,37 C393,36.4 393.4,36 394,36 L398,36 C398.6,36 399,36.4 399,37 C399,37.6 398.6,38 398,38 L395,38 L395,41 C395,41.6 394.6,42 394,42 Z M403.081875,48.105625 L404.366875,49.62375 L404.366875,45.616875 L400.375,45.616875 L401.89375,46.9175 L400,48.75 L401.25,50 L403.081875,48.105625 Z M409.625,44.383125 L408.10625,43.0825 L410,41.25 L408.75,40 L406.918125,41.894375 L405.633125,40.37625 L405.633125,44.383125 L409.625,44.383125 Z" id="Combined-Shape-Copy-3" fill="#929292"></path>
                    <path d="M348,54 L344,54 C343.4,54 343,53.6 343,53 L343,49 C343,48.4 343.4,48 344,48 C344.6,48 345,48.4 345,49 L345,52 L348,52 C348.6,52 349,52.4 349,53 C349,53.6 348.6,54 348,54 Z M366,54 L362,54 C361.4,54 361,53.6 361,53 C361,52.4 361.4,52 362,52 L365,52 L365,49 C365,48.4 365.4,48 366,48 C366.6,48 367,48.4 367,49 L367,53 C367,53.6 366.6,54 366,54 Z M366,42 C365.4,42 365,41.6 365,41 L365,38 L362,38 C361.4,38 361,37.6 361,37 C361,36.4 361.4,36 362,36 L366,36 C366.6,36 367,36.4 367,37 L367,41 C367,41.6 366.6,42 366,42 Z M344,42 C343.4,42 343,41.6 343,41 L343,37 C343,36.4 343.4,36 344,36 L348,36 C348.6,36 349,36.4 349,37 C349,37.6 348.6,38 348,38 L345,38 L345,41 C345,41.6 344.6,42 344,42 Z M353.116875,45.616875 L351.285,47.51125 L350,45.993125 L350,50 L353.991875,50 L352.473125,48.699375 L354.366875,46.866875 L353.116875,45.616875 Z M356.008125,40 L357.526875,41.300625 L355.633125,43.133125 L356.883125,44.383125 L358.715,42.48875 L360,44.006875 L360,40 L356.008125,40 Z" id="Combined-Shape-Copy" fill="#929292"></path>
                    <path d="M19.3999971,255.200095 L10.0485033,255.200095 L13.2243182,252.02428 C13.4586193,251.789979 13.4584693,251.410177 13.2243182,251.175726 C12.9900171,250.941425 12.6102153,250.941425 12.3757642,251.175726 L8.17574458,255.375745 C7.94144348,255.610047 7.94144348,255.989998 8.17559458,256.224149 L12.3756142,260.424169 C12.4927648,260.54132 12.6463655,260.59997 12.7999662,260.59997 C12.9534169,260.59997 13.1070177,260.54132 13.2243182,260.424019 C13.4586193,260.189868 13.4584693,259.809916 13.2243182,259.575765 L10.0483533,256.4001 L19.3999971,256.4001 C19.7313487,256.4001 20.0001499,256.131299 19.9999999,255.800097 C19.9999999,255.468746 19.7313487,255.200095 19.3999971,255.200095 L19.3999971,255.200095 Z" id="Shape-Copy-4" fill="#4A90E2"></path>
                    <g id="programm" transform="translate(0.707000, 71.707000)" fill="#FFFFFF">
                        <path d="M1.11317829,6.58823529 L6.0744186,6.58823529 C6.62015504,6.58823529 7.06666667,6.16470588 7.06666667,5.64705882 L7.06666667,0.941176471 C7.06666667,0.423529412 6.62015504,0 6.0744186,0 L1.11317829,0 C0.56744186,0 0.120930233,0.423529412 0.120930233,0.941176471 L0.120930233,5.64705882 C0.120930233,6.16470588 0.56744186,6.58823529 1.11317829,6.58823529 L1.11317829,6.58823529 Z M2.10542636,1.88235294 L5.08217054,1.88235294 L5.08217054,4.70588235 L2.10542636,4.70588235 L2.10542636,1.88235294 L2.10542636,1.88235294 Z" id="Shape"></path>
                        <path d="M15.0046512,0 L10.0434109,0 C9.49767442,0 9.05116279,0.423529412 9.05116279,0.941176471 L9.05116279,5.64705882 C9.05116279,6.16470588 9.49767442,6.58823529 10.0434109,6.58823529 L15.0046512,6.58823529 C15.5503876,6.58823529 15.9968992,6.16470588 15.9968992,5.64705882 L15.9968992,0.941176471 C15.9968992,0.423529412 15.5503876,0 15.0046512,0 L15.0046512,0 Z M14.0124031,4.70588235 L11.0356589,4.70588235 L11.0356589,1.88235294 L14.0124031,1.88235294 L14.0124031,4.70588235 L14.0124031,4.70588235 Z" id="Shape"></path>
                        <path d="M15.0046512,9.41176471 L1.11317829,9.41176471 C0.56744186,9.41176471 0.120930233,9.83529412 0.120930233,10.3529412 C0.120930233,10.8705882 0.56744186,11.2941176 1.11317829,11.2941176 L15.0046512,11.2941176 C15.5503876,11.2941176 15.9968992,10.8705882 15.9968992,10.3529412 C15.9968992,9.83529412 15.5503876,9.41176471 15.0046512,9.41176471 L15.0046512,9.41176471 Z" id="Shape"></path>
                        <path d="M15.0046512,14.1176471 L1.11317829,14.1176471 C0.56744186,14.1176471 0.120930233,14.5411765 0.120930233,15.0588235 C0.120930233,15.5764706 0.56744186,16 1.11317829,16 L15.0046512,16 C15.5503876,16 15.9968992,15.5764706 15.9968992,15.0588235 C15.9968992,14.5411765 15.5503876,14.1176471 15.0046512,14.1176471 L15.0046512,14.1176471 Z" id="Shape"></path>
                    </g>
                    <use id="task" stroke="#FFFFFF" mask="url(#mask-4)" stroke-width="4" xlink:href="#path-3"></use>
                    <path d="M56.0516127,8.09611789 C56.1661219,7.60672978 56.0444173,7.37525372 55.5929591,7.22480502 C55.4860564,7.18912719 55.3746309,7.16870915 55.265878,7.13904926 C54.9832027,7.0621055 54.9190611,6.85942962 55.1065519,6.62021619 C55.1591809,6.55294413 55.2257895,6.49383929 55.2952762,6.44569571 C56.1167822,5.87785935 57.0065414,5.51764219 58.0017642,5.48368377 C58.7770141,5.46025676 59.2845963,5.74030626 59.4338488,6.34639957 C59.5008686,6.61849678 59.4965514,6.9357286 59.4369326,7.21169449 C59.1855057,8.37745695 58.8991299,9.53505219 58.630023,10.696731 C58.5000951,11.257045 58.6398909,11.4917449 59.1768713,11.6417638 C59.2311449,11.6570236 59.2903526,11.6619669 59.3390755,11.6884029 C59.4550238,11.7511615 59.6527937,11.8158544 59.6593724,11.8943027 C59.6700626,12.0234736 59.5911191,12.2147584 59.4889448,12.2919171 C58.5251761,13.019229 57.4532712,13.4336077 56.2522608,13.3368907 C55.4408283,13.2713381 55.0126009,12.5487545 55.2155104,11.6649759 C55.4891401,10.473852 55.7732546,9.28573721 56.0516127,8.09611789 L56.0516127,8.09611789 Z M60.4999974,1.92535721 C60.5016421,0.853302793 59.7087121,0.00713634828 58.6960148,4.37669509e-05 C57.6662542,-0.00704881438 56.838992,0.848789333 56.847832,1.91267653 C56.8564665,2.9731249 57.6627593,3.80553604 58.6847078,3.80918979 C59.6809585,3.81262862 60.4985584,2.96431291 60.4999974,1.92535721 L60.4999974,1.92535721 Z" id="Shape" fill="#4A4A4A"></path>
                    <path d="M88.25,0 L86.75,0 C86.336,0 86,0.343846154 86,0.769230769 L86,13.84 L89,13.84 L89,0.769230769 C89,0.343846154 88.66475,0 88.25,0 L88.25,0 Z M83.75,4.61538462 L82.25,4.61538462 C81.836,4.61538462 81.5,4.95923077 81.5,5.38461538 L81.5,13.84 L84.5,13.84 L84.5,5.38461538 C84.5,4.95923077 84.16475,4.61538462 83.75,4.61538462 L83.75,4.61538462 Z M79.25,9.23076923 L77.75,9.23076923 C77.336,9.23076923 77,9.57461538 77,10 L77,13.84 L80,13.84 L80,10 C80,9.57461538 79.66475,9.23076923 79.25,9.23076923 L79.25,9.23076923 Z" id="Shape" fill="#4A4A4A"></path>
                    <path d="M109.889582,13.0062401 C109.950564,13.5550785 110.447978,14 111.000055,14 L116.999945,14 C117.55226,14 118.049419,13.5552247 118.110418,13.0062401 L119,5 L109,5 L109.889582,13.0062401 L109.889582,13.0062401 Z M111,2 L111.75,0 L116.25,0 L117,2 L119,2 C120,2 120,4 120,4 L114,4 L108,4 C108,4 108,2 109,2 L111,2 L111,2 Z M112,2 L116,2 L115.5,1 L112.5,1 L112,2 L112,2 Z" id="Shape" fill="#4A4A4A"></path>
                    <path d="M175,6.84210526 C175,5.82473862 175.817646,5 176.842105,5 C177.859472,5 178.684211,5.81764573 178.684211,6.84210526 C178.684211,7.85947191 177.866565,8.68421053 176.842105,8.68421053 C175.824739,8.68421053 175,7.8665648 175,6.84210526 Z M180.157895,6.84210526 C180.157895,5.82473862 180.97554,5 182,5 C183.017367,5 183.842105,5.81764573 183.842105,6.84210526 C183.842105,7.85947191 183.02446,8.68421053 182,8.68421053 C180.982633,8.68421053 180.157895,7.8665648 180.157895,6.84210526 Z M185.315789,6.84210526 C185.315789,5.82473862 186.133435,5 187.157895,5 C188.175261,5 189,5.81764573 189,6.84210526 C189,7.85947191 188.182354,8.68421053 187.157895,8.68421053 C186.140528,8.68421053 185.315789,7.8665648 185.315789,6.84210526 Z" id="Rectangle-75-Copy-3" fill="#FFFFFF"></path>
                    <path d="M158.774297,7.88837023 L150.54837,13.8708624 C150.245514,14.0911218 150,13.9609745 150,13.5972227 L150,1.38188816 C150,1.01050175 150.249359,0.890785453 150.54837,1.1082484 L158.774297,7.09074058 C159.077154,7.31099993 159.073309,7.67090729 158.774297,7.88837023 Z" id="Triangle-2-Copy" fill="#FFFFFF"></path>
                    <path d="M206.051613,8.09611789 C206.166122,7.60672978 206.044417,7.37525372 205.592959,7.22480502 C205.486056,7.18912719 205.374631,7.16870915 205.265878,7.13904926 C204.983203,7.0621055 204.919061,6.85942962 205.106552,6.62021619 C205.159181,6.55294413 205.22579,6.49383929 205.295276,6.44569571 C206.116782,5.87785935 207.006541,5.51764219 208.001764,5.48368377 C208.777014,5.46025676 209.284596,5.74030626 209.433849,6.34639957 C209.500869,6.61849678 209.496551,6.9357286 209.436933,7.21169449 C209.185506,8.37745695 208.89913,9.53505219 208.630023,10.696731 C208.500095,11.257045 208.639891,11.4917449 209.176871,11.6417638 C209.231145,11.6570236 209.290353,11.6619669 209.339076,11.6884029 C209.455024,11.7511615 209.652794,11.8158544 209.659372,11.8943027 C209.670063,12.0234736 209.591119,12.2147584 209.488945,12.2919171 C208.525176,13.019229 207.453271,13.4336077 206.252261,13.3368907 C205.440828,13.2713381 205.012601,12.5487545 205.21551,11.6649759 C205.48914,10.473852 205.773255,9.28573721 206.051613,8.09611789 L206.051613,8.09611789 Z M210.499997,1.92535721 C210.501642,0.853302793 209.708712,0.00713634828 208.696015,4.37669509e-05 C207.666254,-0.00704881438 206.838992,0.848789333 206.847832,1.91267653 C206.856466,2.9731249 207.662759,3.80553604 208.684708,3.80918979 C209.680958,3.81262862 210.498558,2.96431291 210.499997,1.92535721 L210.499997,1.92535721 Z" id="Shape-Copy-3" fill="#FFFFFF"></path>
                    <path d="M238.25,0 L236.75,0 C236.336,0 236,0.343846154 236,0.769230769 L236,13.84 L239,13.84 L239,0.769230769 C239,0.343846154 238.66475,0 238.25,0 L238.25,0 Z M233.75,4.61538462 L232.25,4.61538462 C231.836,4.61538462 231.5,4.95923077 231.5,5.38461538 L231.5,13.84 L234.5,13.84 L234.5,5.38461538 C234.5,4.95923077 234.16475,4.61538462 233.75,4.61538462 L233.75,4.61538462 Z M229.25,9.23076923 L227.75,9.23076923 C227.336,9.23076923 227,9.57461538 227,10 L227,13.84 L230,13.84 L230,10 C230,9.57461538 229.66475,9.23076923 229.25,9.23076923 L229.25,9.23076923 Z" id="Shape-Copy-2" fill="#FFFFFF"></path>
                    <path d="M259.889582,13.0062401 C259.950564,13.5550785 260.447978,14 261.000055,14 L266.999945,14 C267.55226,14 268.049419,13.5552247 268.110418,13.0062401 L269,5 L259,5 L259.889582,13.0062401 L259.889582,13.0062401 Z M261,2 L261.75,0 L266.25,0 L267,2 L269,2 C270,2 270,4 270,4 L264,4 L258,4 C258,4 258,2 259,2 L261,2 L261,2 Z M262,2 L266,2 L265.5,1 L262.5,1 L262,2 L262,2 Z" id="Shape-Copy" fill="#FFFFFF"></path>
                    <path d="M123.784002,71.5281667 L122.692826,72.6179464 C122.565847,72.7467629 122.357403,72.7467629 122.228512,72.6179464 L120.382729,70.7732333 C120.253073,70.6444168 120.253073,70.4360935 120.382729,70.307277 L121.473141,69.2167328 C121.762285,68.9277557 122.230042,68.9277557 122.519569,69.2167328 L123.784002,70.4815806 C124.071999,70.7709398 124.071999,71.2384252 123.784002,71.5281667 L123.784002,71.5281667 Z M121.833042,73.3896985 L115.796193,79.427254 C115.668832,79.6428401 115.46077,79.6428401 115.331879,79.5151703 L113.485714,77.670075 C113.357206,77.5404941 113.357206,77.3329352 113.485714,77.2041187 L119.522563,71.1673276 C119.651454,71.0396579 119.858368,71.0396579 119.987259,71.1673276 L121.833042,73.0131874 C121.962315,73.1416217 121.962315,73.3503273 121.833042,73.3896985 L121.833042,73.3896985 Z M114.771566,80.2792776 L112.152437,81.1764059 L112.103864,81.1932247 C112.023928,81.2115725 111.936343,81.1894023 111.873619,81.1270964 C111.811277,81.0644082 111.789476,80.9772564 111.808982,80.896985 L111.825046,80.8488222 L112.722312,78.2296813 L112.738758,78.1811362 C112.749467,78.1555258 112.76706,78.1310622 112.787331,78.1100387 C112.88333,78.0140953 113.040524,78.0140953 113.136905,78.1100387 L114.891278,79.8641598 C114.986895,79.9612499 114.986895,80.1164413 114.891278,80.212767 C114.869477,80.2349372 114.846529,80.2509914 114.820522,80.2620765 L114.771566,80.2792776 L114.771566,80.2792776 Z M116.551564,71.7659229 L109.655314,71.7659229 L109.655314,83.3452626 L121.241366,83.3452626 L121.241366,76.4530078 C121.241366,75.9958431 121.612358,75.6258302 122.069023,75.6258302 C122.525688,75.6258302 122.89668,75.9958431 122.89668,76.4530078 L122.89668,84.1728224 C122.89668,84.2871136 122.87335,84.3956711 122.831279,84.4950547 C122.70583,84.7912944 122.411331,85 122.069023,85 L122.069023,85 L108.827657,85 C108.37061,85 108,84.6292226 108,84.1728224 L108,70.9391275 C108,70.4823451 108.37061,70.1119499 108.827657,70.1119499 L116.551564,70.1119499 C117.008229,70.1119499 117.379221,70.4823451 117.379221,70.9391275 C117.379221,71.3955277 117.008611,71.7659229 116.551564,71.7659229 L116.551564,71.7659229 Z" id="Shape" fill="#FFFFFF" opacity="0.3"></path>
                    <rect id="Base" fill="#FFAA00" x="174" y="65" width="20" height="20" rx="4"></rect>
                    <rect id="Base-Copy" fill="#E2E2E4" x="174" y="95" width="20" height="20" rx="4"></rect>
                    <polyline id="Icon" stroke="#FFFFFF" stroke-width="2" points="188 72.25 182.5 77.75 180 75.25"></polyline>
                </g>
            </g>
            <path d="M204,349 C204,347.895431 204.88773,347 206,347 C207.104569,347 208,347.88773 208,349 C208,350.104569 207.11227,351 206,351 C204.895431,351 204,350.11227 204,349 Z M214,349 C214,347.895431 214.88773,347 216,347 C217.104569,347 218,347.88773 218,349 C218,350.104569 217.11227,351 216,351 C214.895431,351 214,350.11227 214,349 Z M224,349 C224,347.895431 224.88773,347 226,347 C227.104569,347 228,347.88773 228,349 C228,350.104569 227.11227,351 226,351 C224.895431,351 224,350.11227 224,349 Z" id="Combined-Shape" fill="#4A4A4A"></path>
            <path d="M324.774297,298.88837 L316.54837,304.870862 C316.245514,305.091122 316,304.960975 316,304.597223 L316,292.381888 C316,292.010502 316.249359,291.890785 316.54837,292.108248 L324.774297,298.090741 C325.077154,298.311 325.073309,298.670907 324.774297,298.88837 Z" id="Triangle-2" fill="#4A4A4A"></path>
            <path d="M274.397604,291.799 C274.285604,291.359 273.741604,291 273.187604,291 L258.797604,291 C258.242604,291 257.698604,291.359 257.587604,291.799 L257.386604,293 L274.597604,293 L274.397604,291.799 L274.397604,291.799 Z M275.404604,294 L256.579604,294 C256.237604,294 255.970604,294.294 256.002604,294.635 L256.925604,306.304 C256.963604,306.698 257.295604,307 257.691604,307 L274.292604,307 C274.689604,307 275.020604,306.698 275.058604,306.304 L275.981604,294.635 C276.014604,294.294 275.746604,294 275.404604,294 L275.404604,294 Z M263.992604,303 L263.992604,298 L268.375604,300.5 L263.992604,303 L263.992604,303 Z" id="Shape" fill="#4A4A4A"></path>
            <path d="M224.888889,291 L207.111111,291 C206.496667,291 206,291.486531 206,292.088435 L206,305.14966 C206,305.750476 206.496667,306.238095 207.111111,306.238095 L224.888889,306.238095 C225.503333,306.238095 226,305.750476 226,305.14966 L226,292.088435 C226,291.487619 225.503333,291 224.888889,291 L224.888889,291 Z M219.611111,294.809524 C220.377778,294.809524 221,295.419048 221,296.170068 C221,296.921088 220.377778,297.530612 219.611111,297.530612 C218.844444,297.530612 218.222222,296.921088 218.222222,296.170068 C218.222222,295.419048 218.844444,294.809524 219.611111,294.809524 L219.611111,294.809524 Z M209.333333,302.972789 L213.015556,294.68 L217.203333,301.321633 L220.793333,299.574694 L222.666667,302.972789 L209.333333,302.972789 L209.333333,302.972789 Z" id="Shape" fill="#4A4A4A"></path>
            <path d="M43.3227452,442.88478 C40.3684069,441.12132 39,438.7 39,438.7 C39,438.7 42.3846154,432.711111 50,432.711111 C51.1038167,432.711111 52.1187482,432.836933 53.0473713,433.052102 L50.7603988,435.364486 C50.5159749,435.307751 50.2614494,435.277778 50,435.277778 C48.1307285,435.277778 46.6153846,436.809959 46.6153846,438.7 C46.6153846,438.964354 46.6450289,439.221708 46.7011397,439.468848 L43.3227452,442.88478 L43.3227452,442.88478 L43.3227452,442.88478 L43.3227452,442.88478 Z M46.9526285,444.347898 C47.8812516,444.563067 48.8961832,444.688889 50,444.688889 C57.6153846,444.688888 61,438.7 61,438.7 C61,438.7 59.6315931,436.27868 56.6772545,434.51522 L53.2988603,437.931152 C53.3549711,438.178292 53.3846154,438.435646 53.3846154,438.7 C53.3846154,440.590041 51.8692715,442.122222 50,442.122222 C49.7385506,442.122222 49.4840251,442.092249 49.2396012,442.035514 L46.9526285,444.347898 L46.9526285,444.347898 L46.9526285,444.347898 L46.9526285,444.347898 Z M52.5384615,438.7 C52.5384616,439.356867 52.2906288,440.013735 51.7949633,440.514907 C51.2992979,441.01608 50.6496489,441.266667 50,441.266667 L52.5384615,438.7 L52.5384615,438.7 L52.5384615,438.7 L52.5384615,438.7 Z M50,436.133333 C49.3503511,436.133333 48.7007021,436.38392 48.2050367,436.885093 C47.7093712,437.386265 47.4615384,438.043133 47.4615385,438.7 L50,436.133333 L50,436.133333 L50,436.133333 L50,436.133333 Z M56.7692308,431 L42.3846154,445.544444 L43.2307692,446.4 L57.6153846,431.855556 L56.7692308,431 L56.7692308,431 L56.7692308,431 Z" id="eye-hidden" fill="#4A4A4A"></path>
            <path d="M49.8928571,467 C42.7460536,467 39,472.263429 39,473.1 C39,473.934393 42.7460536,479.2 49.8928571,479.2 C57.0385714,479.2 60.7857143,473.934393 60.7857143,473.1 C60.7857143,472.263429 57.0385714,467 49.8928571,467 L49.8928571,467 Z M49.8928571,477.791554 C47.2186607,477.791554 45.0509821,475.691411 45.0509821,473.1 C45.0509821,470.508589 47.2186607,468.406268 49.8928571,468.406268 C52.5670536,468.406268 54.7336429,470.508589 54.7336429,473.1 C54.7336429,475.691411 52.5670536,477.791554 49.8928571,477.791554 L49.8928571,477.791554 Z M49.8928571,473.1 C49.4495179,472.613089 50.6150536,470.753679 49.8928571,470.753679 C48.5552143,470.753679 47.471375,471.804839 47.471375,473.1 C47.471375,474.395161 48.5552143,475.446321 49.8928571,475.446321 C51.2294107,475.446321 52.3143393,474.395161 52.3143393,473.1 C52.3143393,472.504161 50.26975,473.512839 49.8928571,473.1 L49.8928571,473.1 Z" id="Shape" fill="#4A4A4A"></path>
        </g>
    </g>
</svg>